<svg version="1.0" xmlns="http://www.w3.org/2000/svg"
 viewBox="0 0 100.000000 100.000000"
 preserveAspectRatio="xMidYMid meet">

<g transform="translate(0.000000,100.000000) scale(0.100000,-0.100000)"
fill="#000000" stroke="none">
<path d="M100 900 c-19 -19 -20 -33 -20 -400 0 -367 1 -381 20 -400 19 -19 33
-20 387 -20 l367 0 -69 70 c-53 54 -76 70 -98 70 -58 0 -107 46 -107 101 0 32
26 74 55 87 74 34 145 -15 145 -101 0 -27 12 -45 70 -102 l70 -69 0 372 c0
359 -1 373 -20 392 -18 18 -33 20 -153 20 l-132 0 -98 -98 c-83 -83 -97 -102
-97 -130 0 -87 -75 -136 -149 -98 -91 48 -50 186 56 186 22 0 45 16 98 70 l69
70 -187 0 c-174 0 -188 -1 -207 -20z m629 -134 c15 -8 32 -26 39 -41 34 -74
-15 -145 -101 -145 -27 0 -48 -16 -139 -107 -94 -94 -108 -112 -108 -141 0
-63 -44 -112 -100 -112 -51 0 -100 49 -100 99 0 55 48 101 107 101 22 0 52 24
141 110 97 95 112 114 112 142 1 84 76 131 149 94z"/>
<path d="M650 705 c-26 -32 13 -81 48 -59 34 22 22 74 -18 74 -10 0 -23 -7
-30 -15z"/>
<path d="M290 345 c-15 -18 -10 -45 13 -59 34 -22 73 27 47 59 -16 19 -44 19
-60 0z"/>
<path d="M290 705 c-26 -32 13 -81 48 -59 34 22 22 74 -18 74 -10 0 -23 -7
-30 -15z"/>
<path d="M650 345 c-26 -32 13 -81 48 -59 22 14 27 41 12 59 -16 19 -44 19
-60 0z"/>
</g>
</svg>
