<svg fill="#000" xmlns="http://www.w3.org/2000/svg"  viewBox="0 0 50 50"><path fill="none" stroke="#fff" stroke-linejoin="round" stroke-miterlimit="10" stroke-width="2" d="M25 3A22 22 0 1 0 25 47A22 22 0 1 0 25 3Z"/><path fill="#fff" d="M7.543,29.126c-0.887-7.22,8.23-16.758,16.078-18.626c0,0-2.852,2.184-2.852,4.065c0,3.765,1.82,2.488,1.82,2.488s0,13.59,0,14.561s0.91,1.516,2.184,1.516s3.459-1.577,3.459-1.577s0-10.861,0-12.195c0-1.334-1.026-2.467-1.759-3.095c1.96,0,2.852,0.668,2.852,0.668s2.546-3.301,9.161-5.036c-1.005,1.279-4.186,5.07-4.186,6.224c0,1.154,0,12.645,0,13.313s0.789,0.728,1.275,0.728c0.486,0,2.644-0.504,5.157-3.277c0,0.843-3.355,6.419-8.434,9.707l-3.337-2.852L25.502,39.5c0,0-7.729-0.341-11.042-5.279c0.894,0.133,2.245,0.303,2.245-1.093c0-1.395,0-10.314,0-11.224s-0.425-1.334-1.214-1.334C14.703,20.571,11.811,21.591,7.543,29.126z"/></svg>